<svg xmlns="http://www.w3.org/2000/svg" xmlns:xlink="http://www.w3.org/1999/xlink" width="500" zoomAndPan="magnify" viewBox="0 0 375 374.999991" height="500" preserveAspectRatio="xMidYMid meet" version="1.0"><defs><clipPath id="fae9911172"><path d="M 75 44.230469 L 115 44.230469 L 115 97 L 75 97 Z M 75 44.230469 " clip-rule="nonzero"/></clipPath><clipPath id="855dc82177"><path d="M 260 44.230469 L 300 44.230469 L 300 97 L 260 97 Z M 260 44.230469 " clip-rule="nonzero"/></clipPath><clipPath id="4e81ed2c7f"><path d="M 173.25 290.3125 L 201.921875 290.3125 L 201.921875 367.8125 L 173.25 367.8125 Z M 173.25 290.3125 " clip-rule="nonzero"/></clipPath><clipPath id="afc5ed0af2"><path d="M 157.710938 7.078125 L 217.386719 7.078125 L 217.386719 66.753906 L 157.710938 66.753906 Z M 157.710938 7.078125 " clip-rule="nonzero"/></clipPath></defs><path fill="#000000" d="M 176.617188 326.375 C 176.617188 326.375 171.914062 340.398438 143.53125 343.421875 C 115.148438 346.449219 103.039062 340.398438 103.039062 340.398438 C 103.039062 340.398438 121.960938 325.644531 140.128906 324.882812 C 158.289062 324.125 176.617188 326.375 176.617188 326.375 Z M 176.617188 326.375 " fill-opacity="1" fill-rule="nonzero"/><path fill="#000000" d="M 176.617188 326.375 C 176.617188 326.375 178.753906 311.703125 155.25 295.511719 C 131.742188 279.320312 118.210938 278.871094 118.210938 278.871094 C 118.210938 278.871094 125.976562 298.863281 144.894531 310.566406 C 160.355469 320.128906 176.621094 326.371094 176.621094 326.371094 Z M 176.617188 326.375 " fill-opacity="1" fill-rule="nonzero"/><path fill="#000000" d="M 142.960938 315.988281 C 142.960938 315.988281 128.488281 309.457031 106.628906 309.457031 C 84.773438 309.457031 68.316406 320.816406 68.316406 320.816406 C 68.316406 320.816406 84.492188 327.335938 107.765625 327.335938 C 131.039062 327.339844 142.957031 315.988281 142.957031 315.988281 Z M 142.960938 315.988281 " fill-opacity="1" fill-rule="nonzero"/><path fill="#000000" d="M 116.207031 302.082031 C 116.207031 302.082031 115.03125 286.246094 104.601562 267.046875 C 94.167969 247.839844 76.335938 238.796875 76.335938 238.796875 C 76.335938 238.796875 78.324219 256.125 89.429688 276.578125 C 100.539062 297.027344 116.207031 302.085938 116.207031 302.085938 Z M 116.207031 302.082031 " fill-opacity="1" fill-rule="nonzero"/><path fill="#000000" d="M 105.292969 300.105469 C 105.292969 300.105469 92.75 290.367188 71.503906 285.25 C 50.257812 280.132812 31.601562 287.3125 31.601562 287.3125 C 31.601562 287.3125 45.800781 297.453125 68.429688 302.902344 C 91.050781 308.351562 105.296875 300.105469 105.296875 300.105469 Z M 105.292969 300.105469 " fill-opacity="1" fill-rule="nonzero"/><path fill="#000000" d="M 86.488281 283.222656 C 86.488281 283.222656 78.679688 269.398438 61.058594 256.46875 C 43.4375 243.535156 23.457031 242.949219 23.457031 242.949219 C 23.457031 242.949219 32.640625 257.78125 51.398438 271.554688 C 70.160156 285.324219 86.488281 283.222656 86.488281 283.222656 Z M 86.488281 283.222656 " fill-opacity="1" fill-rule="nonzero"/><path fill="#000000" d="M 67.8125 254.792969 C 67.8125 254.792969 73.101562 240.636719 71.71875 219.894531 C 70.339844 199.148438 58.523438 184.234375 58.523438 184.234375 C 58.523438 184.234375 53.34375 200.003906 54.8125 222.101562 C 56.289062 244.1875 67.8125 254.789062 67.8125 254.789062 Z M 67.8125 254.792969 " fill-opacity="1" fill-rule="nonzero"/><path fill="#000000" d="M 52.988281 241.378906 C 52.988281 241.378906 47.554688 228.785156 33.613281 216.058594 C 19.667969 203.328125 2.554688 200.984375 2.554688 200.984375 C 2.554688 200.984375 9.074219 214.574219 23.925781 228.125 C 38.769531 241.679688 52.988281 241.378906 52.988281 241.378906 Z M 52.988281 241.378906 " fill-opacity="1" fill-rule="nonzero"/><path fill="#000000" d="M 44.582031 213.464844 C 44.582031 213.464844 43.910156 199.761719 35.316406 182.949219 C 26.722656 166.140625 11.519531 157.941406 11.519531 157.941406 C 11.519531 157.941406 12.863281 172.949219 22.011719 190.851562 C 31.164062 208.761719 44.582031 213.464844 44.582031 213.464844 Z M 44.582031 213.464844 " fill-opacity="1" fill-rule="nonzero"/><path fill="#000000" d="M 38.710938 172.578125 C 38.710938 172.578125 39.890625 158.910156 33.636719 141.097656 C 27.382812 123.28125 13.421875 113.113281 13.421875 113.113281 C 13.421875 113.113281 12.730469 128.167969 19.390625 147.136719 C 26.046875 166.113281 38.710938 172.578125 38.710938 172.578125 Z M 38.710938 172.578125 " fill-opacity="1" fill-rule="nonzero"/><path fill="#000000" d="M 44.375 145.636719 C 44.375 145.636719 50.648438 133.4375 51.617188 114.582031 C 52.589844 95.726562 43.523438 81.023438 43.523438 81.023438 C 43.523438 81.023438 37.175781 94.6875 36.140625 114.765625 C 35.105469 134.847656 44.375 145.636719 44.375 145.636719 Z M 44.375 145.636719 " fill-opacity="1" fill-rule="nonzero"/><path fill="#000000" d="M 59.835938 113.214844 C 59.835938 113.214844 68.007812 102.195312 72.03125 83.75 C 76.046875 65.300781 69.496094 49.320312 69.496094 49.320312 C 69.496094 49.320312 61.003906 61.769531 56.722656 81.417969 C 52.445312 101.0625 59.835938 113.210938 59.835938 113.210938 Z M 59.835938 113.214844 " fill-opacity="1" fill-rule="nonzero"/><path fill="#000000" d="M 45.296875 195.882812 C 45.296875 195.882812 55.515625 186.734375 63.152344 169.464844 C 70.785156 152.195312 67.574219 135.222656 67.574219 135.222656 C 67.574219 135.222656 56.757812 145.722656 48.628906 164.109375 C 40.492188 182.5 45.296875 195.882812 45.296875 195.882812 Z M 45.296875 195.882812 " fill-opacity="1" fill-rule="nonzero"/><path fill="#000000" d="M 56.589844 134.160156 C 56.589844 134.160156 69.648438 129.957031 83.65625 117.296875 C 97.660156 104.636719 101.632812 87.824219 101.632812 87.824219 C 101.632812 87.824219 87.480469 93.011719 72.570312 106.5 C 57.652344 119.980469 56.589844 134.160156 56.589844 134.160156 Z M 56.589844 134.160156 " fill-opacity="1" fill-rule="nonzero"/><g clip-path="url(#fae9911172)"><path fill="#000000" d="M 75.882812 96.386719 C 75.882812 96.386719 88.238281 90.421875 100.367188 75.960938 C 112.492188 61.492188 114.113281 44.292969 114.113281 44.292969 C 114.113281 44.292969 100.816406 51.375 87.898438 66.785156 C 74.988281 82.191406 75.882812 96.386719 75.882812 96.386719 Z M 75.882812 96.386719 " fill-opacity="1" fill-rule="nonzero"/></g><path fill="#000000" d="M 178.582031 335.25 C 178.582031 354.242188 147.339844 374.90625 147.339844 364.816406 C 147.339844 354.722656 178.582031 341.980469 178.582031 335.25 Z M 178.582031 335.25 " fill-opacity="1" fill-rule="nonzero"/><path fill="#000000" d="M 132.199219 84.824219 L 92.75 232.324219 L 240.25 271.808594 L 279.699219 124.308594 Z M 171.160156 152.554688 L 212.316406 163.582031 L 201.285156 204.738281 L 160.097656 193.707031 Z M 171.160156 152.554688 " fill-opacity="1" fill-rule="nonzero"/><path fill="#000000" d="M 198.378906 326.375 C 198.378906 326.375 203.085938 340.398438 231.464844 343.421875 C 259.847656 346.449219 271.957031 340.398438 271.957031 340.398438 C 271.957031 340.398438 253.035156 325.644531 234.871094 324.882812 C 216.707031 324.125 198.378906 326.375 198.378906 326.375 Z M 198.378906 326.375 " fill-opacity="1" fill-rule="nonzero"/><path fill="#000000" d="M 198.378906 326.375 C 198.378906 326.375 196.242188 311.703125 219.746094 295.511719 C 243.257812 279.320312 256.785156 278.871094 256.785156 278.871094 C 256.785156 278.871094 249.019531 298.863281 230.101562 310.566406 C 214.640625 320.128906 198.375 326.371094 198.375 326.371094 Z M 198.378906 326.375 " fill-opacity="1" fill-rule="nonzero"/><path fill="#000000" d="M 232.035156 315.988281 C 232.035156 315.988281 246.507812 309.457031 268.367188 309.457031 C 290.222656 309.457031 306.683594 320.816406 306.683594 320.816406 C 306.683594 320.816406 290.503906 327.335938 267.230469 327.335938 C 243.960938 327.339844 232.039062 315.988281 232.039062 315.988281 Z M 232.035156 315.988281 " fill-opacity="1" fill-rule="nonzero"/><path fill="#000000" d="M 258.789062 302.082031 C 258.789062 302.082031 259.964844 286.246094 270.394531 267.046875 C 280.828125 247.839844 298.660156 238.796875 298.660156 238.796875 C 298.660156 238.796875 296.675781 256.125 285.566406 276.578125 C 274.457031 297.027344 258.789062 302.085938 258.789062 302.085938 Z M 258.789062 302.082031 " fill-opacity="1" fill-rule="nonzero"/><path fill="#000000" d="M 269.703125 300.105469 C 269.703125 300.105469 282.246094 290.367188 303.492188 285.25 C 324.738281 280.132812 343.398438 287.3125 343.398438 287.3125 C 343.398438 287.3125 329.195312 297.453125 306.566406 302.902344 C 283.945312 308.351562 269.703125 300.105469 269.703125 300.105469 Z M 269.703125 300.105469 " fill-opacity="1" fill-rule="nonzero"/><path fill="#000000" d="M 288.507812 283.222656 C 288.507812 283.222656 296.316406 269.398438 313.9375 256.46875 C 331.558594 243.535156 351.539062 242.949219 351.539062 242.949219 C 351.539062 242.949219 342.355469 257.78125 323.597656 271.554688 C 304.835938 285.324219 288.507812 283.222656 288.507812 283.222656 Z M 288.507812 283.222656 " fill-opacity="1" fill-rule="nonzero"/><path fill="#000000" d="M 307.183594 254.792969 C 307.183594 254.792969 301.894531 240.636719 303.277344 219.894531 C 304.65625 199.148438 316.472656 184.234375 316.472656 184.234375 C 316.472656 184.234375 321.652344 200.003906 320.183594 222.101562 C 318.710938 244.1875 307.183594 254.789062 307.183594 254.789062 Z M 307.183594 254.792969 " fill-opacity="1" fill-rule="nonzero"/><path fill="#000000" d="M 322.007812 241.378906 C 322.007812 241.378906 327.441406 228.785156 341.382812 216.058594 C 355.328125 203.328125 372.441406 200.984375 372.441406 200.984375 C 372.441406 200.984375 365.921875 214.574219 351.070312 228.125 C 336.226562 241.679688 322.007812 241.378906 322.007812 241.378906 Z M 322.007812 241.378906 " fill-opacity="1" fill-rule="nonzero"/><path fill="#000000" d="M 330.417969 213.464844 C 330.417969 213.464844 331.085938 199.761719 339.679688 182.949219 C 348.273438 166.140625 363.476562 157.941406 363.476562 157.941406 C 363.476562 157.941406 362.132812 172.949219 352.984375 190.851562 C 343.832031 208.761719 330.414062 213.464844 330.414062 213.464844 Z M 330.417969 213.464844 " fill-opacity="1" fill-rule="nonzero"/><path fill="#000000" d="M 336.285156 172.578125 C 336.285156 172.578125 335.105469 158.910156 341.359375 141.097656 C 347.617188 123.28125 361.574219 113.113281 361.574219 113.113281 C 361.574219 113.113281 362.265625 128.167969 355.609375 147.136719 C 348.949219 166.113281 336.285156 172.578125 336.285156 172.578125 Z M 336.285156 172.578125 " fill-opacity="1" fill-rule="nonzero"/><path fill="#000000" d="M 330.621094 145.636719 C 330.621094 145.636719 324.347656 133.4375 323.378906 114.582031 C 322.410156 95.726562 331.472656 81.023438 331.472656 81.023438 C 331.472656 81.023438 337.824219 94.6875 338.859375 114.765625 C 339.894531 134.847656 330.621094 145.636719 330.621094 145.636719 Z M 330.621094 145.636719 " fill-opacity="1" fill-rule="nonzero"/><path fill="#000000" d="M 315.164062 113.214844 C 315.164062 113.214844 306.992188 102.195312 302.96875 83.75 C 298.949219 65.300781 305.5 49.320312 305.5 49.320312 C 305.5 49.320312 313.992188 61.769531 318.273438 81.417969 C 322.554688 101.0625 315.164062 113.210938 315.164062 113.210938 Z M 315.164062 113.214844 " fill-opacity="1" fill-rule="nonzero"/><path fill="#000000" d="M 329.699219 195.882812 C 329.699219 195.882812 319.480469 186.734375 311.847656 169.464844 C 304.210938 152.195312 307.421875 135.222656 307.421875 135.222656 C 307.421875 135.222656 318.238281 145.722656 326.367188 164.109375 C 334.503906 182.5 329.699219 195.882812 329.699219 195.882812 Z M 329.699219 195.882812 " fill-opacity="1" fill-rule="nonzero"/><path fill="#000000" d="M 318.40625 134.160156 C 318.40625 134.160156 305.347656 129.957031 291.339844 117.296875 C 277.339844 104.636719 273.363281 87.824219 273.363281 87.824219 C 273.363281 87.824219 287.515625 93.011719 302.425781 106.5 C 317.34375 119.980469 318.40625 134.160156 318.40625 134.160156 Z M 318.40625 134.160156 " fill-opacity="1" fill-rule="nonzero"/><g clip-path="url(#855dc82177)"><path fill="#000000" d="M 299.113281 96.386719 C 299.113281 96.386719 286.757812 90.421875 274.632812 75.960938 C 262.503906 61.492188 260.882812 44.292969 260.882812 44.292969 C 260.882812 44.292969 274.179688 51.375 287.101562 66.785156 C 300.011719 82.191406 299.113281 96.386719 299.113281 96.386719 Z M 299.113281 96.386719 " fill-opacity="1" fill-rule="nonzero"/></g><path fill="#000000" d="M 196.414062 335.25 C 196.414062 354.242188 227.65625 374.90625 227.65625 364.816406 C 227.65625 354.722656 196.414062 341.980469 196.414062 335.25 Z M 196.414062 335.25 " fill-opacity="1" fill-rule="nonzero"/><g clip-path="url(#4e81ed2c7f)"><path fill="#000000" d="M 201.921875 304.773438 C 200.269531 304.882812 198.457031 305.253906 196.707031 305.890625 C 188.429688 308.882812 188.507812 319.933594 188.460938 327.0625 C 188.289062 352.683594 187.773438 365.132812 187.648438 367.8125 L 187.523438 367.8125 C 187.398438 365.117188 186.882812 352.683594 186.710938 327.0625 C 186.664062 319.933594 186.742188 308.882812 178.464844 305.890625 C 176.714844 305.269531 174.902344 304.898438 173.25 304.773438 C 177.886719 304.449219 183.835938 302.109375 185.851562 297.644531 C 186.835938 295.472656 187.460938 292.761719 187.585938 290.3125 C 187.726562 292.761719 188.351562 295.472656 189.335938 297.644531 C 191.351562 302.109375 197.285156 304.449219 201.921875 304.773438 Z M 201.921875 304.773438 " fill-opacity="1" fill-rule="nonzero"/></g><g clip-path="url(#afc5ed0af2)"><path fill="#000000" d="M 217.382812 36.914062 C 195.007812 41.035156 191.667969 44.375 187.546875 66.75 C 183.429688 44.375 180.089844 41.035156 157.710938 36.914062 C 180.089844 32.796875 183.429688 29.457031 187.546875 7.078125 C 191.667969 29.457031 195.007812 32.796875 217.382812 36.914062 Z M 217.382812 36.914062 " fill-opacity="1" fill-rule="nonzero"/></g></svg>