<?xml version="1.0" encoding="UTF-8" standalone="no"?>
<!-- Created with Inkscape (http://www.inkscape.org/) -->

<svg
   width="50.405273mm"
   height="33.19117mm"
   viewBox="0 0 50.405273 33.19117"
   version="1.1"
   id="svg1"
   xml:space="preserve"
   xmlns:inkscape="http://www.inkscape.org/namespaces/inkscape"
   xmlns:sodipodi="http://sodipodi.sourceforge.net/DTD/sodipodi-0.dtd"
   xmlns:xlink="http://www.w3.org/1999/xlink"
   xmlns="http://www.w3.org/2000/svg"
   xmlns:svg="http://www.w3.org/2000/svg"><sodipodi:namedview
     id="namedview1"
     pagecolor="#ffffff"
     bordercolor="#000000"
     borderopacity="0.25"
     inkscape:showpageshadow="2"
     inkscape:pageopacity="0.0"
     inkscape:pagecheckerboard="0"
     inkscape:deskcolor="#d1d1d1"
     inkscape:document-units="mm"><inkscape:page
       x="0"
       y="0"
       width="50.405273"
       height="33.19117"
       id="page2"
       margin="0"
       bleed="0" /></sodipodi:namedview><defs
     id="defs1"><linearGradient
       id="linearGradient42"
       gradientUnits="userSpaceOnUse"
       x1="-225.45"
       y1="1"
       x2="147.45"
       y2="1"
       spreadMethod="pad"><stop
         offset="0"
         stop-color="#00EEFF"
         id="stop38"
         style="stop-color:#007597;stop-opacity:1;" /><stop
         offset="0.32321429"
         stop-color="#00EEFF"
         id="stop39"
         style="stop-color:#007bb4;stop-opacity:1;" /><stop
         offset="0.68392855"
         stop-color="#00EEFF"
         id="stop40"
         style="stop-color:#2f54ff;stop-opacity:1;" /><stop
         offset="0.85178572"
         stop-color="#00EEFF"
         id="stop41"
         style="stop-color:#00a4c5;stop-opacity:1;" /><stop
         offset="1"
         stop-color="#0091FF"
         id="stop42"
         style="stop-color:#006ebf;stop-opacity:1;" /></linearGradient><linearGradient
       id="linearGradient37"
       gradientUnits="userSpaceOnUse"
       x1="-225.45"
       y1="1"
       x2="147.45"
       y2="1"
       spreadMethod="pad"><stop
         offset="0"
         stop-color="#00EEFF"
         id="stop33"
         style="stop-color:#009eca;stop-opacity:1;" /><stop
         offset="0.32321429"
         stop-color="#00EEFF"
         id="stop34"
         style="stop-color:#29bbff;stop-opacity:1;" /><stop
         offset="0.68392855"
         stop-color="#00EEFF"
         id="stop35"
         style="stop-color:#6984ff;stop-opacity:1;" /><stop
         offset="0.85178572"
         stop-color="#00EEFF"
         id="stop36"
         style="stop-color:#1dd8ff;stop-opacity:1;" /><stop
         offset="100%"
         stop-color="#0091FF"
         id="stop37" /></linearGradient><linearGradient
       id="linearGradient29"
       gradientUnits="userSpaceOnUse"
       x1="-96.875"
       y1="66.25"
       x2="9.5749998"
       y2="66.25"
       spreadMethod="pad"><stop
         offset="0%"
         stop-color="#00EEFF"
         id="stop28" /><stop
         offset="0.55178571"
         stop-color="#0091FF"
         id="stop29" /><stop
         offset="0.98571426"
         stop-color="#0091FF"
         id="stop30"
         style="stop-color:#47b2ff;stop-opacity:1;" /></linearGradient><linearGradient
       id="linearGradient27"
       gradientUnits="userSpaceOnUse"
       x1="-225.45"
       y1="1"
       x2="147.45"
       y2="1"
       spreadMethod="pad"><stop
         offset="0"
         stop-color="#00EEFF"
         id="stop24"
         style="stop-color:#2afff2;stop-opacity:1;" /><stop
         offset="0.3464286"
         stop-color="#00EEFF"
         id="stop26"
         style="stop-color:#0093ce;stop-opacity:1;" /><stop
         offset="0.55892861"
         stop-color="#00EEFF"
         id="stop31"
         style="stop-color:#0276ff;stop-opacity:1;" /><stop
         offset="100%"
         stop-color="#0091FF"
         id="stop27" /></linearGradient><linearGradient
       id="linearGradient21"
       inkscape:collect="always"><stop
         style="stop-color:#000000;stop-opacity:1;"
         offset="0"
         id="stop22" /><stop
         style="stop-color:#000000;stop-opacity:0;"
         offset="1"
         id="stop23" /></linearGradient><linearGradient
       id="linearGradient19"
       gradientUnits="userSpaceOnUse"
       x1="-225.45"
       y1="1"
       x2="147.45"
       y2="1"
       spreadMethod="pad"><stop
         offset="0%"
         stop-color="#00EEFF"
         id="stop18" /><stop
         offset="0.42857143"
         stop-color="#00EEFF"
         id="stop32"
         style="stop-color:#298bff;stop-opacity:1;" /><stop
         offset="0.61964285"
         stop-color="#00EEFF"
         id="stop20"
         style="stop-color:#3c5fff;stop-opacity:1;" /><stop
         offset="0.85178572"
         stop-color="#00EEFF"
         id="stop21"
         style="stop-color:#1dd8ff;stop-opacity:1;" /><stop
         offset="100%"
         stop-color="#0091FF"
         id="stop19" /></linearGradient><linearGradient
       id="linearGradient2037"><stop
         style="stop-color:#ff2292;stop-opacity:1;"
         offset="0"
         id="stop2033" /><stop
         style="stop-color:#770ad5;stop-opacity:1;"
         offset="0.69059008"
         id="stop2041" /><stop
         style="stop-color:#c30000;stop-opacity:1;"
         offset="1"
         id="stop2035" /></linearGradient><linearGradient
       xlink:href="#linearGradient2037"
       id="linearGradient2039"
       x1="-101.46119"
       y1="50.790245"
       x2="-68.270027"
       y2="83.981407"
       gradientUnits="userSpaceOnUse" /><linearGradient
       xlink:href="#linearGradient2037"
       id="linearGradient2057"
       x1="-83.430847"
       y1="60.36731"
       x2="-66.502197"
       y2="60.36731"
       gradientUnits="userSpaceOnUse" /><clipPath
       clipPathUnits="userSpaceOnUse"
       id="clipPath3273"><path
         style="fill:#262626;fill-opacity:1;fill-rule:evenodd;stroke:url(#linearGradient2039);stroke-width:2.11;stroke-linecap:square;stroke-dasharray:none;stroke-opacity:1;paint-order:stroke markers fill"
         id="path3275"
         d="m -69.411949,67.385826 -4.526272,10.927387 -10.927387,4.526272 -10.927387,-4.526272 -4.526275,-10.927387 4.526275,-10.927387 10.927387,-4.526272 10.927387,4.526272 z"
         transform="translate(23.0829,-10.590599)" /></clipPath><clipPath
       clipPathUnits="userSpaceOnUse"
       id="clipPath3435"><path
         style="fill:#262626;fill-opacity:1;fill-rule:evenodd;stroke:url(#linearGradient2057);stroke-width:2.11;stroke-linecap:square;stroke-dasharray:none;stroke-opacity:1;paint-order:stroke markers fill"
         id="path3437"
         d="m -81.566491,64.177803 -0.761339,-5.78295 3.550814,-4.627512 5.782951,-0.761339 4.627511,3.550814 0.76134,5.78295 -3.550815,4.627512 -5.78295,0.76134 z"
         transform="translate(-2.6638364,1.3036882)" /></clipPath><linearGradient
       inkscape:collect="always"
       xlink:href="#linearGradient27"
       id="linearGradient1"
       gradientUnits="userSpaceOnUse"
       x1="-83.430847"
       y1="60.36731"
       x2="-66.502197"
       y2="60.36731"
       gradientTransform="translate(170.46001,92.648707)" /><linearGradient
       inkscape:collect="always"
       xlink:href="#linearGradient19"
       id="linearGradient2"
       gradientUnits="userSpaceOnUse"
       x1="-101.46119"
       y1="50.790245"
       x2="-68.270027"
       y2="83.981407"
       gradientTransform="translate(196.80983,81.045424)" /><linearGradient
       inkscape:collect="always"
       xlink:href="#linearGradient37"
       id="linearGradient3"
       gradientUnits="userSpaceOnUse"
       x1="-334.03256"
       y1="22.840553"
       x2="-320.02597"
       y2="22.840553"
       gradientTransform="matrix(2.36436,0.63352835,-0.63352835,2.36436,893.19363,302.66716)" /><linearGradient
       inkscape:collect="always"
       xlink:href="#linearGradient42"
       id="linearGradient6"
       gradientUnits="userSpaceOnUse"
       x1="-323.49869"
       y1="298.77139"
       x2="-278.51337"
       y2="300.09985"
       gradientTransform="matrix(0.54045784,0.19758521,-0.19758521,0.54045784,320.89939,53.937219)" /><linearGradient
       inkscape:collect="always"
       xlink:href="#linearGradient29"
       id="linearGradient18"
       x1="73.383804"
       y1="154.29335"
       x2="87.907707"
       y2="145.23215"
       gradientUnits="userSpaceOnUse"
       gradientTransform="rotate(-1.067389,84.474399,143.92252)" /><linearGradient
       inkscape:collect="always"
       xlink:href="#linearGradient21"
       id="linearGradient23"
       x1="-81.491776"
       y1="67.28035"
       x2="-70.269051"
       y2="67.28035"
       gradientUnits="userSpaceOnUse" /></defs><g
     inkscape:label="Layer 1"
     inkscape:groupmode="layer"
     id="layer1"
     transform="translate(-78.134529,-131.83566)"><g
       id="g42"
       inkscape:export-filename="g42.png"
       inkscape:export-xdpi="258.00476"
       inkscape:export-ydpi="258.00476"><path
         style="fill:#262626;fill-opacity:1;fill-rule:evenodd;stroke:url(#linearGradient1);stroke-width:2.11;stroke-linecap:square;stroke-dasharray:none;stroke-opacity:1;paint-order:stroke markers fill"
         id="path450"
         d="m 88.893524,156.82651 -0.761339,-5.78295 3.550814,-4.62751 5.782951,-0.76134 4.62751,3.55082 0.76134,5.78295 -3.550814,4.62751 -5.78295,0.76134 z" /><path
         id="path-1-8"
         style="fill:#000000;fill-rule:nonzero;stroke:url(#linearGradient23);stroke-width:0;stroke-linecap:butt;stroke-linejoin:miter;stroke-dasharray:none;stroke-opacity:1"
         d="m -72.714941,65.52985 a 0.25724691,0.25724691 0 0 0 -0.123507,0.04961 c -0.146249,0.110022 -0.28866,0.23049 -0.541569,0.464571 -0.156945,0.14526 -0.319075,0.298491 -0.486275,0.435632 -1.171472,0.707667 -2.438243,1.040981 -3.531051,1.209745 -0.818056,0.126335 -1.558163,0.161335 -2.008146,0.17415 -0.836898,0.02384 -1.586647,-0.0093 -1.826245,-0.02015 a 0.25724691,0.25724691 0 0 0 -0.02325,0.513664 v 3.030823 h 4.591968 v -1.252637 h 1.471745 v -0.330729 h 2.764689 v -0.33228 h 1.25212 v -0.248047 h 0.995288 v -0.574125 h 0.80822 v -0.511596 h 0.644921 V 65.96807 h -3.780131 a 0.25724691,0.25724691 0 0 0 -0.208772,-0.438216 z"
         clip-path="url(#clipPath3435)"
         transform="translate(173.12385,91.345019)" /><path
         style="fill:#262626;fill-opacity:1;fill-rule:evenodd;stroke:url(#linearGradient2);stroke-width:2.11;stroke-linecap:square;stroke-dasharray:none;stroke-opacity:1;paint-order:stroke markers fill"
         id="path448"
         d="m 127.39788,148.43125 -4.52627,10.92739 -10.92739,4.52627 -10.92738,-4.52627 -4.52628,-10.92739 4.52628,-10.92739 10.92738,-4.52627 10.92739,4.52627 z" /><path
         id="path-1"
         style="fill:#000000;fill-rule:nonzero;stroke:none;stroke-width:1px;stroke-linecap:butt;stroke-linejoin:miter;stroke-opacity:1"
         d="m -50.452734,46.505172 a 0.72760415,0.72760415 0 0 0 -0.574642,0.187068 c -0.394765,0.362615 -0.862594,0.903101 -1.263489,1.737879 -0.278604,0.580133 -0.486939,1.219044 -0.661458,1.947685 -0.154535,0.645202 -0.265178,1.28335 -0.387574,1.945617 -0.116677,0.631326 -0.233232,1.221772 -0.392224,1.762683 -0.02257,0.07678 -0.03241,0.15673 -0.02894,0.236678 0.06041,1.391501 -0.05752,2.62402 -0.311608,3.716569 -0.261317,1.123616 -0.666824,2.100172 -1.173055,2.951241 -0.531759,0.893986 -1.177382,1.654399 -1.889291,2.303219 -0.769226,0.701058 -1.618144,1.273473 -2.487703,1.742529 -2.189608,1.181114 -4.555784,1.729065 -6.222876,2.003496 -0.451058,0.07425 -0.866493,0.130946 -1.23145,0.174666 -2.616433,0.313433 -4.869753,0.220929 -5.584155,0.188619 a 0.7278394,0.7278394 0 0 0 -0.06615,1.454175 c 0.146126,0.0066 0.371393,0.01493 0.634587,0.02274 v 1.565279 h 3.961515 v 3.96875 h 8.678023 v -0.937927 h 5.680274 v -0.894519 h 1.752864 v -1.204061 h 2.279448 v -0.79685 h 1.579232 v -1.339453 h 0.926041 v -1.204578 h 1.190625 v -2.513542 h 0.643372 v -3.340881 h 0.628385 v -4.169255 h 0.519865 V 54.80596 h 1.231966 v -1.256254 h 1.315166 V 46.86846 h -8.203634 a 0.72760415,0.72760415 0 0 0 -0.543119,-0.363285 z m 0.06873,1.616439 v 0.0031 h -0.0026 c 8.33e-4,-9.97e-4 0.0018,-0.0021 0.0026,-0.0031 z"
         clip-path="url(#clipPath3273)"
         transform="translate(173.72693,91.636023)" /><path
         id="path1788"
         style="font-weight:bold;font-size:8px;font-family:'Microsoft Tai Le';-inkscape-font-specification:'Microsoft Tai Le Bold';text-align:center;text-anchor:middle;white-space:pre;fill:#ffffff;fill-opacity:1;fill-rule:evenodd;stroke:url(#linearGradient3);stroke-width:2.11;stroke-linecap:square;stroke-dasharray:none;paint-order:stroke markers fill"
         d="m 92.334932,141.35726 c -0.360991,0.005 -0.701617,0.0494 -1.023193,0.13281 l -0.376204,1.40353 c 0.598376,-0.22416 1.179656,-0.27751 1.744079,-0.15399 0.869121,0.1902 1.2256,0.62593 1.044381,1.30224 -0.19261,0.71887 -0.86274,0.92616 -1.968872,0.63201 l -0.677995,-0.18035 -0.357084,1.33221 0.730188,0.21808 c 0.567022,0.16904 0.995317,0.40377 1.276925,0.70435 0.289862,0.30628 0.386267,0.64747 0.286287,1.02061 -0.09686,0.36147 -0.311974,0.59559 -0.642338,0.70176 -0.322469,0.10631 -0.72054,0.0754 -1.190108,-0.0899 -0.725423,-0.25542 -1.289786,-0.664 -1.703255,-1.22112 l -0.398426,1.48673 c 0.423037,0.44774 1.044348,0.83185 1.879472,1.15394 1.015554,0.3917 1.905591,0.48144 2.650484,0.25166 0.765034,-0.236 1.264934,-0.76407 1.483631,-1.58026 0.144711,-0.54007 0.06804,-1.05516 -0.22686,-1.53944 -0.289142,-0.48053 -0.750178,-0.84857 -1.373043,-1.10381 l 0.0078,-0.0289 c 1.296041,0.0588 2.121766,-0.47805 2.425691,-1.61231 0.17089,-0.63777 0.02914,-1.21506 -0.417545,-1.7234 -0.432478,-0.49631 -1.115622,-0.82867 -2.029334,-1.00046 -0.402452,-0.0757 -0.783641,-0.11068 -1.144633,-0.10594 z m 6.475574,1.26814 -2.434993,9.08937 2.448429,0.93586 0.88005,-3.28455 1.274858,0.40049 c 1.51,0.47458 2.86164,0.55535 4.01991,0.21394 1.20674,-0.35634 1.97003,-1.07713 2.25826,-2.15284 0.60983,-2.27591 -0.93046,-3.76612 -4.30878,-4.41162 z m 2.126484,2.13941 1.07125,0.23874 c 1.51976,0.33868 2.17167,1.03499 1.89291,2.07533 -0.28506,1.06388 -1.20719,1.37652 -2.70474,0.95498 l -1.05575,-0.29714 z m 12.7987,0.72088 c -0.8745,-0.0319 -1.65219,0.0294 -2.33939,0.1819 -0.66682,0.15128 -1.22156,0.39982 -1.66966,0.74518 -0.44201,0.33664 -0.73786,0.78943 -0.89091,1.36064 -0.19542,0.72931 -0.0648,1.43089 0.39895,2.11408 0.48028,0.69867 1.3204,1.42502 2.55023,2.19212 0.49797,0.30742 0.96765,0.60583 1.40715,0.89452 0.44586,0.29288 0.82735,0.57421 1.14205,0.84284 0.32702,0.27431 0.57307,0.54008 0.7369,0.79685 0.16486,0.25837 0.2156,0.50903 0.1509,0.75034 -0.0477,0.17812 -0.15985,0.32206 -0.3359,0.4315 -0.17382,0.10326 -0.41352,0.16468 -0.71727,0.18448 -0.29109,0.017 -0.64254,-0.0122 -1.05316,-0.0879 -0.39743,-0.0717 -0.84868,-0.19643 -1.35134,-0.37258 -0.8395,-0.29419 -1.62429,-0.67472 -2.35645,-1.13792 -0.713,-0.45717 -1.32954,-0.97777 -1.85467,-1.56114 l -0.6568,2.45049 c 0.49942,0.4138 1.12426,0.8223 1.88205,1.22732 0.78506,0.41844 1.64907,0.81065 2.59674,1.17615 0.95095,0.36684 1.89514,0.66223 2.82981,0.88264 0.9693,0.22993 1.86579,0.33804 2.68252,0.31884 0.83584,-0.0256 1.54937,-0.20301 2.13269,-0.53382 0.60257,-0.33755 1.00608,-0.87706 1.20406,-1.61592 0.14351,-0.53568 0.13353,-1.04573 -0.0284,-1.52755 -0.15919,-0.48444 -0.44644,-0.95442 -0.85834,-1.40767 -0.40644,-0.44719 -0.91405,-0.88344 -1.51825,-1.3069 -0.58209,-0.41893 -1.24052,-0.83809 -1.97146,-1.25677 -0.52574,-0.29871 -0.98779,-0.57214 -1.38803,-0.82114 -0.39367,-0.25139 -0.7185,-0.48322 -0.9772,-0.6966 -0.25503,-0.217 -0.44016,-0.42118 -0.55656,-0.61288 -0.1144,-0.19622 -0.14531,-0.39135 -0.093,-0.58653 0.0479,-0.17891 0.16116,-0.32241 0.33951,-0.43098 0.18059,-0.11446 0.41464,-0.19426 0.70332,-0.23926 0.29093,-0.0454 0.63756,-0.0528 1.04179,-0.0217 0.41036,0.0258 0.86146,0.0925 1.35548,0.20154 0.36375,0.0802 0.74542,0.18263 1.14515,0.30747 0.41381,0.12847 0.82696,0.27884 1.23971,0.45165 0.41935,0.169 0.82364,0.35762 1.21182,0.56586 0.40278,0.21297 0.76936,0.4383 1.09915,0.67593 l 0.73019,-2.72542 c -0.70924,-0.31555 -1.48644,-0.59375 -2.3275,-0.83457 -0.81053,-0.23938 -1.73476,-0.45551 -2.76418,-0.64906 -1.01767,-0.19134 -1.97335,-0.29878 -2.87166,-0.32608 z" /><path
         id="path6646"
         style="font-weight:bold;font-size:8px;font-family:Arial;-inkscape-font-specification:'Arial Bold';text-align:center;letter-spacing:6.79px;text-anchor:middle;white-space:pre;fill:#ffffff;fill-rule:evenodd;stroke:url(#linearGradient6);stroke-width:0.4;stroke-linecap:square;stroke-dasharray:none;stroke-opacity:1;paint-order:markers stroke fill"
         d="m 91.015633,152.25014 -0.257348,2.21485 0.451135,0.18707 0.989087,-1.38803 -0.141594,1.73943 0.471806,0.19534 1.34152,-1.9389 -0.469739,-0.1664 -0.889868,1.36064 0.152446,-1.62161 -0.521932,-0.18448 -0.904338,1.27434 0.201538,-1.52291 z m 6.090068,2.15336 -0.854729,2.33784 0.545704,0.22634 0.86558,-2.36781 z m 4.773869,1.68775 -0.94723,2.59054 0.67076,0.27802 0.29042,-0.79375 0.72347,-0.2217 0.51057,1.64693 0.95394,0.39584 -0.83716,-2.23345 1.76889,-0.55449 -1.00718,-0.35657 -1.86913,0.65681 0.42685,-1.16634 z m 8.58449,3.03495 -1.11311,3.04478 0.92914,0.38551 1.13171,-3.09542 z" /><path
         id="rect9"
         style="fill:#000000;fill-opacity:1;stroke:url(#linearGradient18);stroke-width:1.21493;paint-order:stroke markers fill"
         d="m 86.603696,141.5217 -3.741048,-0.52106 -1.652067,3.39675 0.964293,0.92901 -3.181405,3.30221 0.791728,0.76277 3.181408,-3.30221 0.964293,0.92902 3.332853,-1.77745 z m -1.16011,1.20416 0.30749,1.73233 -1.552484,0.82813 -0.237794,-0.22909 -0.791731,-0.76277 -0.237794,-0.22909 0.769729,-1.58226 z"
         inkscape:transform-center-x="1.3457894"
         inkscape:transform-center-y="1.2734864" /></g></g></svg>