<svg version="1.2" xmlns="http://www.w3.org/2000/svg" viewBox="0 0 811 573" width="811" height="573">
	<style>
		.s0 { fill: #ffffff } 
	</style>
	<g id="Folder 1">
		<path id="Layer 2" class="s0" d="m548.68 262.82c0 0 86.31 3.9 79.57 3.9l-30.63-89.93c0 0-2.12-10.52 2.2-18.67 3.44-6.51 12.56-12.69 12.56-12.69l-98.96 0.12c0 0 35.38 117.27 35.26 117.27z"/>
		<path id="Layer 1" class="s0" d="m589.6 393.08l105.06-0.29 51.08-108.3-44.89 4.08c0 0-8.54 0.65-16.37 3.35-8.28 2.85-15.76 7.98-15.76 7.98 0 0-6.9 4.99-11.97 11.39-6.22 7.86-9.84 17.74-9.84 17.74l-13.48-31.18-74.17 0.83z"/>
		<path id="Layer 1 copy" class="s0" d="m811 145.45l-81.97-0.1-45.03 99.39c0 0-2.59 9.74 0.67 16.59 3.54 7.46 7.33 9.53 13.84 11.59 6.51 2.06 50.67 4.04 50.67 4.04z"/>
		<path id="Layer 4" class="s0" d="m117.38 395.44l112.34 0.46 39.98-75.73c0 0-95.81 57.47-104.51 60.68-8.7 3.22-10.75 4.35-21.79 7.79-12.82 3.99-26.02 6.8-26.02 6.8zm304.03 2.27h138.22c0 0-9.65-3.9-13.48-6.74-3.84-2.85-8.73-10.37-15.24-21.96-8.02-14.29-12.85-30.35-12.85-30.35 0 0-2.05-5.78-2.63-10.37-0.59-4.65 1.73-7.99 1.73-7.99l8.76-13.62h-84.28c0 0-5.03 5.05-5.97 10.72-1.01 6.09 2.6 12.88 2.6 12.88l10.11 26.97c0 0 2.69 5 2.71 10 0.03 5.11-2.71 10.23-2.71 10.23 0 0-7.89 14.68-13.49 16.86-5.59 2.18-13.48 3.37-13.48 3.37zm-252.85 175.31l112.92-224.54c0 0 3.36-6.35 3.36-12.72 0.01-5.98-2.99-11.98-2.99-11.98 0 0-7.18-11.61-17.4-18.52-13.03-8.81-30.68-10.48-30.68-10.48l-233.77-8.32 230.29-7.25c0 0 37.51-2.33 69.21-16.91 37.11-17.07 62.19-45.94 66.58-50.25 4.38-4.3 132.87-212.15 132.87-212.15 0 0-22.47 44.93-46.05 89.27-22.82 42.9-27.15 49.57-49.36 88.92-11.86 21.01-19.21 44.31-19.21 44.31 0 0-4.44 15.19-0.02 27.15 4.27 11.54 10 16.26 16.87 20.05 6.88 3.79 23.6 6.74 23.6 6.74l-19.94-54.13 50.28-94.2 43.83 141.59c0 0 2.36 4.7 6 7.87 4.5 3.91 10.86 5.62 10.86 5.62l151.7 3.37c0 0-222.63 5.13-235.99 6.74-13.35 1.61-45.41 4.5-81.29 25.56-32.46 19.04-50.26 39.76-56.93 51.98-6.67 12.21-124.74 202.28-124.74 202.28z"/>
	</g>
</svg>