<?xml version="1.0" encoding="UTF-8"?>
<svg version="1.1" xmlns="http://www.w3.org/2000/svg" width="556" height="684">
<path d="M0 0 C375.4435941 0 375.4435941 0 469.8125 92.6875 C473.37248587 96.32413629 476.72948743 100.10149928 480 104 C480.4134668 104.48903809 480.82693359 104.97807617 481.25292969 105.48193359 C494.80965837 121.61512002 506.37080806 139.26407128 516 158 C516.43908691 158.85223145 516.87817383 159.70446289 517.33056641 160.58251953 C542.77154893 210.53492757 556.01369863 268.35112368 556.203125 324.3984375 C556.20595238 325.06493946 556.20877975 325.73144142 556.21169281 326.41814041 C556.22656819 329.96170674 556.23586485 333.50523376 556.24023438 337.04882812 C556.24456936 339.90084984 556.25828187 342.75256053 556.28125 345.60449219 C556.81075349 412.80986925 545.08462884 495.55543687 502 550 C497.96838633 548.39929121 495.33469589 545.5399105 492.38671875 542.4765625 C491.29244332 541.36185585 490.19803814 540.24727654 489.10351562 539.1328125 C487.39617569 537.38212166 485.69140231 535.62902631 483.98950195 533.87304688 C482.33687859 532.17175347 480.67483398 530.48009206 479.01171875 528.7890625 C478.51355148 528.26913727 478.01538422 527.74921204 477.50212097 527.21353149 C472.915304 522.56379047 467.80013187 518.66956018 461.0625 518.1875 C460.29035156 518.11917969 459.51820313 518.05085937 458.72265625 517.98046875 C455.81104767 517.88537384 455.81104767 517.88537384 452.37084961 518.98730469 C449.53043847 519.34088125 448.35445286 519.22059802 445.89808655 517.69184875 C443.58995427 515.63297374 441.46388478 513.47477723 439.34375 511.22265625 C438.16214294 510.0219474 438.16214294 510.0219474 436.95666504 508.79698181 C434.44918653 506.23918241 431.97481333 503.65187912 429.5 501.0625 C427.80417466 499.32152816 426.10628006 497.58256936 424.40625 495.84570312 C420.24655343 491.58685631 416.11360146 487.30336069 412 483 C413.43027904 479.23633287 414.93500182 476.62526051 417.5625 473.5625 C422.61708662 467.38568566 426.86704194 460.80898675 431 454 C431.37801758 453.37851074 431.75603516 452.75702148 432.14550781 452.11669922 C451.05730784 420.6643247 460.47856206 384.51451053 462 348 C462.04253906 346.9790625 462.08507812 345.958125 462.12890625 344.90625 C463.26183363 287.50459583 440.3646512 231.99212373 400.95703125 190.73828125 C392.52093168 182.04756136 383.86189333 174.03752198 374 167 C373.34515625 166.52788086 372.6903125 166.05576172 372.015625 165.56933594 C324.89305585 131.93250203 266.30206419 118.2825452 209.08984375 127.45654297 C152.92408244 137.33525541 101.12958949 168.10888872 68 215 C48.47946961 243.12756541 35.84854625 274.24657743 30 308 C29.88140625 308.68078613 29.7628125 309.36157227 29.640625 310.06298828 C20.78898806 364.10802752 35.33352482 422.80782017 66.94921875 467.19921875 C102.81910321 516.37188075 154.19235383 547.80164537 214.28613281 557.36376953 C268.81884925 565.40584705 327.66788679 551.14616111 372.10839844 518.44873047 C376.14660194 515.38769876 380.07764099 512.20720239 384 509 C385.32676905 507.99130695 386.65702122 506.9870085 388 506 C391.04796154 507.3676183 393.20024579 508.92875132 395.59106445 511.25292969 C396.61651115 512.24471222 396.61651115 512.24471222 397.66267395 513.25653076 C398.75197456 514.32837616 398.75197456 514.32837616 399.86328125 515.421875 C400.61465866 516.15948059 401.36603607 516.89708618 402.1401825 517.65704346 C403.72403617 519.21764773 405.30492809 520.78126279 406.88305664 522.34765625 C409.30550696 524.74308497 411.75084792 527.1134625 414.19726562 529.484375 C415.73325181 531.00371258 417.26780706 532.52449843 418.80078125 534.046875 C419.53710281 534.75334167 420.27342438 535.45980835 421.03205872 536.18768311 C422.88696623 538.05905103 424.55381601 539.79740467 426 542 C425.96704102 545.359375 425.96704102 545.359375 425 548 C424.0704726 555.48933507 426.11562048 560.62730102 430 567 C432.22650433 569.80693916 434.6878062 572.2782292 437.26953125 574.7578125 C437.95053391 575.43174042 438.63153656 576.10566833 439.33317566 576.80001831 C441.48136318 578.92052797 443.64636807 581.02284054 445.8125 583.125 C447.28435886 584.57174181 448.75507317 586.019649 450.22460938 587.46875 C453.80333424 590.99275902 457.39723907 594.50057481 461 598 C456.87264751 606.55713555 448.34746281 612.27602704 441 618 C440.02571045 618.76425293 440.02571045 618.76425293 439.03173828 619.54394531 C385.27450175 661.38674714 321.12127475 676.39440692 254.4375 681.6875 C253.67523102 681.74834778 252.91296204 681.80919556 252.12759399 681.87188721 C168.3405182 688.45794897 84.04552504 684 0 684 C0 458.28 0 232.56 0 0 Z " fill="#ffffff" transform="translate(0,0)"/>
<path d="M0 0 C23.63739022 24.44035889 39.19268695 54.9372242 46.6875 87.9375 C46.86684082 88.7207666 47.04618164 89.5040332 47.23095703 90.31103516 C56.98840872 135.37747788 45.95447957 184.35372826 21.47265625 222.84765625 C1.88778879 252.57812718 -27.66800146 278.39459484 -61.3125 290.9375 C-62.6325 290.9375 -63.9525 290.9375 -65.3125 290.9375 C-87.74067656 194.78526271 -87.74067656 194.78526271 -71.3125 166.9375 C-61.30856693 153.03875505 -46.65462108 147.41423609 -30.28955078 144.57617188 C-18.36022903 142.70435242 -6.36988128 142.23450408 5.6875 141.9375 C5.15084717 141.61700684 4.61419434 141.29651367 4.0612793 140.96630859 C-16.11966931 128.85216872 -36.86150627 116.13087644 -51.4453125 97.30078125 C-57.98999749 89.01723643 -66.15275087 83.17393375 -74.72192383 77.16088867 C-76.39968242 75.8704438 -77.84844657 74.46341873 -79.3125 72.9375 C-78.64420166 72.701521 -77.97590332 72.46554199 -77.28735352 72.22241211 C-50.04427581 65.0621254 -50.04427581 65.0621254 -28.3125 49.9375 C-34.96176531 49.80221485 -41.29136333 50.28278643 -47.875 51.1875 C-49.34175171 51.38339722 -49.34175171 51.38339722 -50.83813477 51.58325195 C-62.03668502 53.11473081 -73.17779327 55.00160797 -84.3125 56.9375 C-89.6859202 41.393821 -94.37242112 25.64555724 -99.06860352 9.88781738 C-100.1126608 6.38682766 -101.16000298 2.88682086 -102.20703125 -0.61328125 C-104.24531999 -7.42875376 -106.28009348 -14.24527083 -108.3125 -21.0625 C-110.36997058 -20.75351872 -112.42711854 -20.44238866 -114.48413086 -20.13037109 C-115.62973984 -19.95734467 -116.77534882 -19.78431824 -117.95567322 -19.60604858 C-155.5860054 -13.51281974 -192.67763465 2.53572589 -227.8125 16.75 C-228.6059079 17.07078522 -229.3993158 17.39157043 -230.21676636 17.72207642 C-239.00266812 21.28150826 -247.71948058 24.92891014 -256.3125 28.9375 C-254.40946099 36.16799874 -252.28804215 43.28220614 -249.9140625 50.37109375 C-249.26276774 52.34041111 -248.61173464 54.30981501 -247.9609375 56.27929688 C-246.9548812 59.31377888 -245.94668863 62.34749891 -244.93359375 65.37963867 C-241.43126483 75.87718288 -238.04931865 86.36462861 -235.3359375 97.09765625 C-235.1267569 97.91874374 -234.91757629 98.73983124 -234.70205688 99.58580017 C-232.88631623 107.04613873 -232.88631623 107.04613873 -233.3125 110.9375 C-234.96484375 113.33984375 -234.96484375 113.33984375 -237.25 115.875 C-264.70635946 148.14374171 -269.14576036 187.38882627 -273.3125 227.9375 C-294.03463064 207.82610878 -302.61555645 173.66457664 -306.3125 145.9375 C-306.44398438 144.98230469 -306.57546875 144.02710938 -306.7109375 143.04296875 C-310.0766022 113.43421578 -305.13435464 82.20844896 -293.3125 54.9375 C-293.02681152 54.26348145 -292.74112305 53.58946289 -292.44677734 52.89501953 C-285.90268157 37.61839185 -277.20573134 23.51502614 -266.3125 10.9375 C-265.62929688 10.14472656 -264.94609375 9.35195312 -264.2421875 8.53515625 C-232.24243973 -27.76563288 -188.99057226 -50.32493998 -140.375 -53.75 C-87.12196265 -56.76592904 -38.08426546 -36.80979201 0 0 Z " fill="#ffffff" transform="translate(373.3125,217.0625)"/>
<path d="M0 0 C5.39425701 2.38350891 8.00968289 6.16083966 10.75 11.25 C13.48358184 19.17889761 13.56192129 30.46109421 10.25 38.25 C7.99224614 42.34564473 5.78198514 45.94044127 1.6875 48.375 C-1.95913137 49.22305381 -4.37408898 48.95418711 -8 48 C-14.39198931 43.98934004 -16.58268112 38.60628637 -18.75 31.5625 C-19.67851576 22.0452135 -18.75670312 14.05395571 -14.125 5.5625 C-9.96046186 0.54055695 -6.50928677 -0.69742358 0 0 Z " fill="#ffffff" transform="translate(263,317)"/>
<path d="M0 0 C3.27229673 0.65333291 6.02814871 0.12586477 9.26953125 -0.546875 C10.40390625 -0.7325 11.53828125 -0.918125 12.70703125 -1.109375 C13.97546875 -1.3259375 13.97546875 -1.3259375 15.26953125 -1.546875 C15.26953125 0.433125 15.26953125 2.413125 15.26953125 4.453125 C8.33953125 7.423125 8.33953125 7.423125 1.26953125 10.453125 C5.72388136 12.68030005 6.63183315 12.4942409 11.26953125 11.453125 C12.21828125 11.2675 13.16703125 11.081875 14.14453125 10.890625 C14.84578125 10.74625 15.54703125 10.601875 16.26953125 10.453125 C16.76453125 13.423125 16.76453125 13.423125 17.26953125 16.453125 C10.33953125 19.423125 10.33953125 19.423125 3.26953125 22.453125 C6.23953125 23.443125 9.20953125 24.433125 12.26953125 25.453125 C11.26953125 27.453125 11.26953125 27.453125 9.33203125 28.640625 C4.17960475 30.0075953 -1.07297598 29.09761931 -6.2109375 27.8515625 C-9.10774096 27.39346335 -11.19273631 27.74457231 -14.04296875 28.390625 C-14.92597656 28.58527344 -15.80898437 28.77992188 -16.71875 28.98046875 C-17.38261719 29.13644531 -18.04648438 29.29242188 -18.73046875 29.453125 C-19.06046875 27.473125 -19.39046875 25.493125 -19.73046875 23.453125 C-14.45046875 21.473125 -9.17046875 19.493125 -3.73046875 17.453125 C-10.26475143 15.40216804 -10.26475143 15.40216804 -16.16796875 16.328125 C-17.03292969 16.53179687 -17.89789063 16.73546875 -18.7890625 16.9453125 C-19.42972656 17.11289063 -20.07039062 17.28046875 -20.73046875 17.453125 C-20.73046875 15.473125 -20.73046875 13.493125 -20.73046875 11.453125 C-15.78046875 9.473125 -10.83046875 7.493125 -5.73046875 5.453125 C-10.18546875 4.463125 -10.18546875 4.463125 -14.73046875 3.453125 C-9.55329046 -1.72405329 -6.73863013 -1.7433272 0 0 Z " fill="#ffffff" transform="translate(251.73046875,231.546875)"/>
</svg>
